<svg width="48" height="48" viewBox="0 0 48 48" fill="none" xmlns="http://www.w3.org/2000/svg">
<path fill-rule="evenodd" clip-rule="evenodd" d="M32.5114 21.243C31.3474 17.6205 27.9514 15 23.9419 15C18.9709 15 14.9419 19.029 14.9419 24C14.9419 28.971 18.9709 33 23.9419 33C27.0364 33 29.7664 31.4385 31.3849 29.061C31.8844 28.3275 32.8669 28.0005 33.6304 28.452C34.2859 28.842 34.5469 29.673 34.1434 30.321C32.0269 33.7305 28.2499 36 23.9419 36C17.3149 36 11.9419 30.627 11.9419 24C11.9419 17.373 17.3149 12 23.9419 12C29.2369 12 33.7294 15.429 35.3239 20.187C35.7409 19.5435 36.1294 18.915 36.4279 18.4245C36.5899 18.1575 36.7219 17.9385 36.8149 17.7825L36.8779 17.6775L36.9214 17.6025L36.9484 17.5575L36.9559 17.5455L36.9574 17.5425C37.3759 16.8285 38.2954 16.5885 39.0094 17.007C39.7249 17.4255 39.9634 18.345 39.5449 19.0605L39.5434 19.062L39.5419 19.065L39.5344 19.0785L39.5044 19.1295C39.4789 19.1715 39.4399 19.2375 39.3919 19.317L39.2989 19.4745L39.2764 19.512L39.1504 19.7205C39.1009 19.803 39.0469 19.8915 38.9899 19.9845C38.6569 20.532 38.1979 21.2745 37.7164 22.0095C37.2364 22.7445 36.7024 23.5185 36.2494 24.093C36.0139 24.39 35.7454 24.696 35.5264 24.903C35.4004 25.0185 35.2009 25.1745 35.0524 25.2675C34.8979 25.3605 34.5169 25.569 34.0099 25.5345C33.7069 25.515 33.4564 25.4145 33.3394 25.365C33.2149 25.3125 33.0469 25.2285 32.9149 25.1535C32.6689 25.0155 32.3569 24.8175 32.0524 24.609C31.4539 24.201 30.7264 23.6595 30.0469 23.139C29.3674 22.617 28.7089 22.0935 28.2259 21.708C27.9829 21.513 27.7819 21.3495 27.6424 21.237L27.4804 21.105L27.4369 21.069L27.4264 21.06L27.4234 21.0585L27.4219 21.057C26.7814 20.532 26.6884 19.587 27.2134 18.9465C27.7384 18.3045 28.6834 18.213 29.3239 18.738L29.3779 18.7815L29.5339 18.909C29.6704 19.02 29.8654 19.176 30.1024 19.3665C30.5779 19.749 31.2124 20.2515 31.8739 20.7585C32.0884 20.9235 32.3014 21.0855 32.5114 21.243Z" fill="black"/>
</svg>
